<?xml version="1.0" standalone="no"?><!DOCTYPE svg PUBLIC "-//W3C//DTD SVG 1.1//EN" "http://www.w3.org/Graphics/SVG/1.1/DTD/svg11.dtd"><svg t="1725808740956" class="icon" viewBox="0 0 1024 1024" version="1.1" xmlns="http://www.w3.org/2000/svg" p-id="10924" xmlns:xlink="http://www.w3.org/1999/xlink" width="20" height="20"><path d="M854.06 409.86l-228.55-0.52C582.91 613.57 401.88 767 185 767q-15.34 0-30.45-1a63.09 63.09 0 0 0-67.3 62.94A63.08 63.08 0 0 0 150.33 892h703.59A63.08 63.08 0 0 0 917 828.92v-356a63.09 63.09 0 0 0-62.94-63.06z" fill="#C9F4EB" p-id="10925"></path><path d="M585 676H431a25 25 0 0 1 0-50h154a25 25 0 0 1 0 50z" fill="#FFA143" p-id="10926"></path><path d="M508 753a25 25 0 0 1-25-25V574a25 25 0 0 1 50 0v154a25 25 0 0 1-25 25z" fill="#FFA143" p-id="10927"></path><path d="M863.92 925H160.33a88.18 88.18 0 0 1-88.08-88.08V299.08A88.18 88.18 0 0 1 160.33 211h234.56a85 85 0 0 1 82.9 66.22l19.85 87.62a34.83 34.83 0 0 0 34.06 27.27l332.42 0.75A88.22 88.22 0 0 1 952 480.94v356A88.18 88.18 0 0 1 863.92 925zM160.33 261a38.12 38.12 0 0 0-38.08 38.08v537.84A38.12 38.12 0 0 0 160.33 875h703.59A38.12 38.12 0 0 0 902 836.92v-356a38.15 38.15 0 0 0-38-38.08l-332.42-0.75a85 85 0 0 1-82.7-66.22L429 288.27A34.81 34.81 0 0 0 394.89 261z" fill="#10A38B" p-id="10928"></path><path d="M849.8 441h-0.07l-318.18-0.87a85 85 0 0 1-82.67-66.22L429 286.27A34.81 34.81 0 0 0 394.89 259h-196a25 25 0 0 1-25-25v-40.92A88.18 88.18 0 0 1 262 105h524.71a88.19 88.19 0 0 1 88.09 88.08V416a25 25 0 0 1-25 25zM223.89 209h171a85 85 0 0 1 82.9 66.22l19.86 87.64a34.82 34.82 0 0 0 34 27.27l293.11 0.8V193.08A38.13 38.13 0 0 0 786.71 155H262a38.12 38.12 0 0 0-38.08 38.08z" fill="#10A38B" p-id="10929"></path></svg>